<svg width="127" height="43" viewBox="0 0 127 43" fill="none" xmlns="http://www.w3.org/2000/svg">
<path d="M98.464 28.0126C98.464 23.6512 99.7062 20.2007 102.191 17.6611C104.73 15.1216 108.153 13.8518 112.459 13.8518C116.765 13.8518 120.188 15.1492 122.728 17.744C125.267 20.2835 126.537 23.7064 126.537 28.0126C126.537 32.3189 125.267 35.7418 122.728 38.2813C120.188 40.8209 116.765 42.0907 112.459 42.0907C108.153 42.0907 104.73 40.8209 102.191 38.2813C99.7062 35.7418 98.464 32.3189 98.464 28.0126ZM118.173 28.1783C118.173 24.4793 117.649 21.4705 116.6 19.1518C115.551 16.7778 114.226 15.5908 112.625 15.5908C110.858 15.5908 109.423 16.7502 108.319 19.0689C107.214 21.3325 106.662 24.3137 106.662 28.0126C106.662 31.7668 107.159 34.748 108.153 36.9563C109.202 39.1647 110.582 40.2688 112.294 40.2688C114.005 40.2688 115.413 39.1647 116.517 36.9563C117.621 34.6928 118.173 31.7668 118.173 28.1783Z" fill="white"/>
<path d="M95.4763 36.6251C95.4763 38.2813 96.0008 39.1095 97.0497 39.1095C98.0987 39.1095 99.1201 38.6954 100.114 37.8673L100.776 38.6954C98.844 40.9589 96.4425 42.0907 93.5716 42.0907C91.6394 42.0907 90.2316 41.649 89.3482 40.7657C88.4649 39.8272 88.0232 38.3641 88.0232 36.3767V5.98465C88.0232 5.21174 87.6644 4.82528 86.9467 4.82528H84.2967L84.0483 3.99716C85.0972 3.00342 86.4498 2.23051 88.106 1.67842C89.8175 1.07114 91.5013 0.767494 93.1576 0.767494C93.8753 0.767494 94.4274 0.933118 94.8138 1.26436C95.2555 1.5404 95.4763 1.95447 95.4763 2.50655V36.6251Z" fill="white"/>
<path d="M74.1496 13.8518C76.3579 13.8518 78.3454 14.4315 80.1121 15.5908C81.934 16.695 83.3418 18.2408 84.3355 20.2283C85.3845 22.2158 85.9089 24.4517 85.9089 26.9361C85.9089 29.8069 85.2188 32.4017 83.8386 34.7204C82.5136 36.9839 80.6642 38.7782 78.2902 40.1032C75.9163 41.4282 73.2663 42.0907 70.3403 42.0907C68.3528 42.0907 66.3653 41.787 64.3778 41.1798C62.3903 40.5725 60.7617 39.7443 59.4919 38.6954V5.98465C59.4919 5.54299 59.4091 5.23934 59.2435 5.07372C59.0778 4.90809 58.8018 4.82528 58.4153 4.82528H55.8482L55.5997 3.99716C56.6487 3.00342 58.0013 2.23051 59.6575 1.67842C61.369 1.07114 63.0528 0.767494 64.7091 0.767494C65.4268 0.767494 65.9788 0.933118 66.3653 1.26436C66.807 1.5404 67.0278 1.95447 67.0278 2.50655V16.419C67.8559 15.5908 68.8773 14.956 70.0918 14.5143C71.3616 14.0726 72.7142 13.8518 74.1496 13.8518ZM70.7543 40.186C75.3366 40.186 77.6277 36.2386 77.6277 28.3439C77.6277 24.4241 77.048 21.4429 75.8887 19.4002C74.7845 17.3023 73.1283 16.2533 70.92 16.2533C69.5398 16.2533 68.2424 16.6674 67.0278 17.4955V39.3579C68.2424 39.91 69.4845 40.186 70.7543 40.186Z" fill="white"/>
<path d="M40.5085 23.0439C39.3492 23.7064 37.969 24.0377 36.3679 24.0377C35.2086 24.0377 34.2976 23.7064 33.6351 23.0439C32.9726 22.3262 32.6414 21.3325 32.6414 20.0627C32.6414 18.1856 33.5523 16.695 35.3742 15.5908C37.2513 14.4315 39.6804 13.8518 42.6616 13.8518C46.195 13.8518 48.9554 14.6247 50.9428 16.1705C52.9855 17.7164 54.0069 19.8143 54.0069 22.4642V36.7907C54.0069 38.3365 54.559 39.1095 55.6631 39.1095C56.7121 39.1095 57.7334 38.6954 58.7272 37.8673L59.3897 38.6954C57.347 40.9589 54.9178 42.0907 52.1022 42.0907C50.446 42.0907 49.1762 41.6766 48.2929 40.8485C47.4647 40.0204 46.9679 38.723 46.8023 36.9563H46.471C45.5877 38.5574 44.4007 39.8272 42.9101 40.7657C41.4747 41.649 39.8184 42.0907 37.9414 42.0907C35.8435 42.0907 34.1596 41.4558 32.8898 40.186C31.62 38.861 30.9852 37.1496 30.9852 35.0517C30.9852 32.6777 32.1169 30.8007 34.3804 29.4205C36.644 28.0403 39.708 27.3501 43.5726 27.3501C44.2903 27.3501 45.3116 27.4054 46.6366 27.5158V23.3752C46.6366 20.67 46.3054 18.7377 45.6429 17.5783C44.9804 16.3638 43.9038 15.7565 42.4132 15.7565C41.3643 15.7565 40.5361 16.0877 39.9288 16.7502C39.3216 17.4127 39.0179 18.2684 39.0179 19.3174C39.0179 20.9736 39.5148 22.2158 40.5085 23.0439ZM41.7507 37.9501C45.008 37.9501 46.6366 34.9965 46.6366 29.0892C43.8762 29.0892 41.8059 29.5585 40.4257 30.497C39.0455 31.3803 38.3554 32.6501 38.3554 34.3064C38.3554 35.4105 38.6591 36.2939 39.2664 36.9563C39.8736 37.6188 40.7018 37.9501 41.7507 37.9501Z" fill="white"/>
<path d="M32.4033 14.7627C32.4033 17.1367 31.8236 19.2346 30.6643 21.0564C29.5601 22.8231 28.0695 24.1757 26.1924 25.1142C24.3705 26.0528 22.4383 26.522 20.3956 26.522C18.2425 26.522 16.1998 25.9699 14.2675 24.8658L14.4331 24.1205L15.8409 24.2033L17.2487 24.1205C19.4018 23.7892 21.0857 22.8231 22.3002 21.2221C23.5148 19.5658 24.1221 17.3851 24.1221 14.6799C24.1221 11.6435 23.432 9.1039 22.0518 7.0612C20.7268 4.9633 18.8773 3.91434 16.5034 3.91434C15.2336 3.91434 14.2951 4.2732 13.6878 4.9909C13.1357 5.7086 12.8597 6.50912 12.8597 7.39245V30.497C12.8597 32.7053 13.0253 34.4444 13.3565 35.7142C13.743 36.9839 14.4055 38.2537 15.344 39.5235L16.0065 40.5173L15.344 41.3454H0.934741L0.355057 39.8548C1.79047 39.4683 2.78421 39.1094 3.33629 38.7782C3.94358 38.447 4.35764 37.9777 4.57847 37.3704C4.7993 36.7631 4.90972 35.797 4.90972 34.472V12.444C4.90972 10.5117 4.74409 9.04869 4.41285 8.05495C4.13681 7.00599 3.44671 6.15027 2.34255 5.48777L1.3488 4.90809L1.68005 3.83153C3.28108 3.33466 5.35138 2.893 7.89095 2.50654C10.4857 2.12009 12.9425 1.92686 15.2612 1.92686C20.8924 1.92686 25.1435 3.11383 28.0143 5.48777C30.9403 7.80651 32.4033 10.8982 32.4033 14.7627Z" fill="white"/>
</svg>
