<svg width="65" height="67" viewBox="0 0 65 67" fill="none" xmlns="http://www.w3.org/2000/svg">
<ellipse cx="32.5" cy="32" rx="32.5" ry="32" fill="#FFBC59"/>
<mask id="mask0_10_56" style="mask-type:alpha" maskUnits="userSpaceOnUse" x="0" y="3" width="65" height="64">
<ellipse cx="32.5" cy="35" rx="32.5" ry="32" fill="#FE904E"/>
</mask>
<g mask="url(#mask0_10_56)">
<path d="M12.0753 64.7906C10.8649 60.6706 24.618 46.3364 26.2947 48.1593C27.9713 49.9823 26.1812 54.2926 32.758 53.2767C38.9129 52.3259 42.0983 48.8633 40.8368 48.2448C40.7297 48.215 40.6221 48.1865 40.5141 48.1593C40.6429 48.1733 40.7503 48.2023 40.8368 48.2448C50.2067 50.8506 55.8595 63.4045 53.4408 63.5113C53.4408 63.5113 28.8801 83.9806 12.0753 64.7906Z" fill="#47A5DB"/>
<path d="M26.08 4.54545L14.56 8.36364V12.1818L12 16L44 12.1818C43.5733 11.3333 42.208 8.87273 40.16 5.81818C38.112 2.76364 29.0667 2 24.8 2L26.08 4.54545Z" fill="#AA5E4E"/>
<path d="M16.9 16.57L42.9 14L46.8 25.565C49.4 24.7083 52 25.565 52 28.135C52 33.4332 50.7 34.56 46.8 34.56C44.1747 34.56 42.7275 40.3829 37.7 43.0133V46.125L41.6 48.695C40.3 49.98 36.92 52.807 33.8 53.835C30.68 54.863 27.3 50.8367 26 48.695L29.5179 47.41V44.0401C28.8153 43.9245 28.0768 43.7644 27.3 43.555C23.2691 42.4683 20.6262 39.7544 18.9505 36.3576C18.7003 36.1867 17.94 35.845 16.9 35.845C15.6 35.845 13 31.99 13 29.42C13 27.364 15.2857 25.9933 16.4286 25.565C16.2428 22.1796 16.4961 18.9655 16.9 16.57Z" fill="#CC9777"/>
<path d="M23.0664 1.12414C22.9168 1.21858 22.7752 1.41532 22.6886 1.65142C22.5548 1.9977 22.5548 2.03705 22.6807 2.44629C22.8145 2.87914 23.1529 3.28838 24.0029 4.02815C24.4043 4.3823 24.4436 4.47674 24.239 4.56331C24.0816 4.62627 22.6493 5.05125 22.2872 5.14569C21.5396 5.34244 19.3045 6.12157 18.431 6.49145C18.3444 6.52293 17.9588 6.6882 17.5653 6.8456C16.5658 7.25484 16.3218 7.35715 16.1723 7.43585C16.0936 7.48307 15.9913 7.51455 15.9441 7.51455C15.8968 7.51455 15.7473 7.56177 15.6135 7.62473C15.4719 7.68769 15.0075 7.85296 14.5747 7.98675C14.1418 8.1284 13.646 8.2858 13.4729 8.34876C13.2919 8.41172 13.1109 8.45895 13.0558 8.45895C12.8118 8.45895 12.0956 8.86818 11.9068 9.11215C11.6785 9.40334 11.6313 9.90701 11.7887 10.2139C12.1114 10.8199 12.8039 11.3866 13.709 11.7722C13.9923 11.8981 14.1891 12.0319 14.2048 12.1185C14.2284 12.2129 13.827 12.6694 12.985 13.5272C11.5841 14.9517 11.466 15.0776 10.7499 16.0141C10.0495 16.927 9.90779 17.2576 10.0495 17.6196C10.1439 17.8793 10.4744 18.1941 10.7892 18.3279C11.1512 18.4774 12.0642 18.6742 12.6859 18.7292C13.2683 18.7843 13.7169 18.8788 13.89 18.989C13.953 19.0362 14.0159 19.351 14.0631 19.8389C14.134 20.618 14.3228 22.0504 14.4094 22.4517C14.4881 22.8059 14.7714 24.7813 14.7714 24.9701C14.7714 25.0882 14.7006 25.1748 14.5589 25.2377C14.433 25.2849 14.2284 25.3715 14.0867 25.4266C13.953 25.4895 13.8192 25.5368 13.7956 25.5368C13.6303 25.5368 12.8669 26.2293 12.5442 26.67C11.7887 27.701 11.466 28.6926 11.466 30.0148C11.466 31.7619 12.0091 33.0605 13.3234 34.477C14.1182 35.327 15.6922 36.1612 16.5028 36.1612C16.6996 36.1612 16.9357 36.2163 17.0301 36.2793C17.1167 36.3422 17.3921 36.7829 17.6282 37.2551C17.8643 37.7273 18.2657 38.3963 18.5175 38.7347C19.0527 39.4509 21.1776 41.5994 21.697 41.9456C21.8937 42.0716 22.0669 42.1975 22.0905 42.229C22.1928 42.3391 23.3812 43.0081 24.058 43.3386C24.7584 43.677 25.9468 44.1256 26.5764 44.283C26.7259 44.3224 27.2138 44.4168 27.6624 44.4955C28.111 44.5742 28.5124 44.6765 28.5517 44.7159C28.5911 44.7552 28.6304 45.1881 28.6462 45.676L28.6619 46.5574L27.6388 46.9431C27.0801 47.1477 26.4032 47.4153 26.1435 47.5333C25.8838 47.6514 25.4588 47.8403 25.1991 47.9583C24.058 48.4541 22.3896 49.367 21.2405 50.1068C21.1225 50.1855 20.973 50.2721 20.91 50.3036C20.6739 50.4137 19.2022 51.4683 18.5884 51.9641C17.2347 53.0659 15.645 54.7894 14.8265 56.0329C14.6219 56.3319 14.4094 56.6546 14.3386 56.7412C14.2756 56.8199 14.2205 56.9222 14.2205 56.9537C14.2205 56.9852 14.071 57.2527 13.89 57.5439C13.5122 58.1578 12.2294 60.6604 12.0169 61.1877C11.9382 61.3845 11.6628 61.9904 11.3952 62.5335C11.1276 63.0844 10.9151 63.5802 10.9151 63.6431C10.9151 63.7061 10.8837 63.7848 10.8443 63.832C10.7735 63.9107 10.5217 64.6662 10.5217 64.8079C10.5217 64.863 10.805 64.8866 11.411 64.8709L12.2924 64.8472L12.4341 64.4144C12.5128 64.1783 12.7095 63.6825 12.8748 63.3126C13.0479 62.9427 13.2447 62.502 13.3155 62.3289C13.4414 62.0298 13.8192 61.2664 13.9844 60.9674C14.0238 60.8965 14.1812 60.566 14.3228 60.2433C14.4724 59.9128 14.7321 59.4327 14.9052 59.1809C15.0784 58.9212 15.2987 58.4962 15.3932 58.2365C15.4876 57.9768 15.7001 57.5911 15.8575 57.3708C16.0228 57.1583 16.251 56.8278 16.3769 56.6467C16.5028 56.4579 16.676 56.2296 16.7704 56.1352C16.8648 56.0329 17.1088 55.7417 17.3056 55.482C17.6282 55.057 18.3523 54.3251 18.8638 53.908C18.974 53.8214 19.3124 53.5381 19.6115 53.2863C19.9184 53.0344 20.2332 52.7669 20.3198 52.696C20.5165 52.5386 21.3979 51.9562 22.0826 51.5391C22.3581 51.3739 22.6729 51.1692 22.7909 51.0984C22.9955 50.9646 23.5622 50.6341 23.9714 50.4137C24.0816 50.3508 24.3492 50.1855 24.5617 50.036C24.7663 49.8943 24.9709 49.7763 25.0103 49.7763C25.0496 49.7763 25.0968 49.8707 25.1283 49.9966C25.3014 50.823 26.057 52.0035 26.9856 52.9164C27.4893 53.4122 28.6462 54.2071 29.0712 54.3408C29.2364 54.3959 29.4096 54.4668 29.4489 54.4982C29.5984 54.6006 30.3146 54.8052 31.0229 54.9311C31.5581 55.0334 31.983 55.057 32.7543 55.0255C33.9899 54.9783 34.4621 54.8839 35.5875 54.4746C36.705 54.0733 37.193 53.845 37.5628 53.546C38.3262 52.94 38.5309 52.7668 39.1447 52.2317C39.5067 51.909 39.7979 51.6257 39.7979 51.5942C39.7979 51.5627 40.0104 51.2479 40.2701 50.8938C40.5298 50.5396 40.8525 50.0517 40.9863 49.8156C41.1201 49.5795 41.246 49.3828 41.2617 49.3828C41.3483 49.3828 42.8436 50.2485 43.5361 50.7049C45.3305 51.8697 45.6689 52.0979 45.8184 52.2238C45.905 52.2947 46.33 52.6488 46.7628 53.0029C47.7623 53.8372 48.6123 54.7107 49.0609 55.3875C49.2576 55.6787 49.4544 55.9621 49.5094 56.0171C49.659 56.1745 49.8793 56.5444 50.2256 57.2134C50.4066 57.5597 50.7136 58.142 50.9103 58.5119C51.1936 59.0707 51.5478 59.8498 51.9255 60.7549C51.957 60.8414 52.0593 61.0775 52.1459 61.2822C52.2403 61.4868 52.3112 61.7071 52.3112 61.7701C52.3112 61.833 52.3426 61.9039 52.382 61.9354C52.4213 61.959 52.4764 62.0849 52.5079 62.2187C52.5394 62.3525 52.6102 62.5492 52.6732 62.6673C52.7361 62.7853 52.7834 62.9506 52.7834 63.045C52.7834 63.1316 52.8148 63.2339 52.8463 63.2811C52.8857 63.3205 52.9958 63.5959 53.0903 63.9029C53.1847 64.2019 53.3028 64.5482 53.35 64.6662L53.4287 64.8866H54.2865H55.1443V64.6426C55.1443 64.4065 54.9633 63.6589 54.8295 63.352C54.7902 63.2654 54.6485 62.8561 54.5147 62.4469C53.9953 60.8808 52.5079 57.599 51.7603 56.3477C51.6343 56.1273 51.5006 55.8991 51.4691 55.8361C51.4376 55.7732 51.2566 55.4899 51.0598 55.2065C49.8164 53.4043 48.872 52.4048 47.3373 51.2716C45.5981 49.9809 45.0236 49.6031 43.5755 48.8004C43.0954 48.5328 40.9705 47.4782 40.6243 47.3366C40.5377 47.3051 40.034 47.0926 39.5067 46.8722C38.9794 46.6519 38.5151 46.4709 38.4679 46.4709C38.4207 46.4709 38.3341 46.3843 38.2633 46.2899C38.161 46.1325 38.1531 45.8806 38.1846 44.7001C38.2161 43.9289 38.2475 43.2678 38.2711 43.2285C38.2948 43.1891 38.6017 43.016 38.9558 42.8428C39.31 42.6697 39.6563 42.4808 39.7192 42.4257C39.7822 42.3706 40.0812 42.1503 40.3882 41.9456C40.6872 41.7332 40.9863 41.5128 41.0492 41.4577C41.1122 41.3947 41.2539 41.2846 41.364 41.2137C41.9858 40.8202 43.4732 39.3564 44.1736 38.4435C44.4176 38.1208 44.6458 37.8375 44.6773 37.8139C44.7088 37.7903 44.9055 37.5227 45.1101 37.2237C45.3226 36.9167 45.5666 36.5547 45.6689 36.4131C45.7633 36.2714 45.8578 36.1219 45.8735 36.0747C45.8893 36.0274 46.2749 35.9802 46.8415 35.9723C47.9512 35.9487 48.51 35.8071 49.6118 35.2483C51.17 34.4534 52.6102 32.7299 53.169 30.9828C53.3343 30.4634 53.35 30.3138 53.3185 29.2593C53.287 28.3857 53.2477 28.0394 53.1532 27.8584C53.0824 27.7246 53.0195 27.583 53.0195 27.5357C53.0195 27.3547 52.4922 26.4576 52.1616 26.0798C51.9806 25.8673 51.6422 25.5525 51.4219 25.3872C51.0126 25.0882 50.1154 24.6396 49.7455 24.5452C49.5016 24.4822 49.4544 24.2697 49.5567 23.7267C49.7613 22.6485 49.8793 21.2555 49.9266 19.4218C49.9659 17.7691 49.9502 17.2812 49.8321 16.5099C49.5567 14.5896 49.053 13.3147 48.1007 12.0476C47.8174 11.6778 47.5892 11.3236 47.5892 11.2607C47.5892 11.182 47.7466 11.1111 48.0456 11.056C49.0373 10.8514 49.4071 10.6232 49.5173 10.1274C49.5881 9.7811 49.3678 9.35612 48.9822 9.10428C48.691 8.90753 48.6044 8.89179 47.9118 8.89966C47.4947 8.90753 46.9281 8.95475 46.6527 9.00984C46.0467 9.12002 45.9365 9.05706 46.0781 8.67143C46.2355 8.23859 46.4087 6.8456 46.4087 6.02713C46.4087 5.12208 46.3064 4.81515 45.8971 4.45313C45.661 4.24851 45.5509 4.20916 45.2125 4.20916C44.331 4.20916 43.9926 4.73645 43.8195 6.35766C43.788 6.6882 43.7329 6.98726 43.7014 7.01874C43.6778 7.05022 43.5204 6.94791 43.3551 6.79051C42.4344 5.90907 40.4196 4.57118 39.1683 3.99667C38.1846 3.54021 38.1374 3.52448 37.2638 3.23329C36.2879 2.90275 35.6583 2.73748 34.8398 2.59582C34.5172 2.54073 34.1945 2.4699 34.1315 2.44629C34.0686 2.42268 33.7695 2.35972 33.4626 2.32037C32.1719 2.11575 31.3613 1.9977 30.472 1.88752C29.9526 1.81669 29.1892 1.70652 28.78 1.64356C26.1908 1.22645 24.8607 1.05331 24.058 1.01396C23.4127 0.982476 23.2789 0.998218 23.0664 1.12414ZM34.0765 4.26425C33.9741 4.27999 33.801 4.27999 33.683 4.26425C33.557 4.24851 33.6436 4.23277 33.8561 4.23277C34.0765 4.23277 34.1709 4.24851 34.0765 4.26425ZM35.2491 4.46887C35.3042 4.53183 35.5245 4.60266 35.7449 4.62627C35.9574 4.65775 36.1699 4.72071 36.2092 4.76006C36.2564 4.80728 36.3745 4.83876 36.4768 4.83876C36.6578 4.83876 36.8546 4.90959 37.555 5.23226C37.7281 5.31096 37.9957 5.42901 38.1452 5.49197C39.0345 5.88547 39.7979 6.2711 39.7979 6.33406C39.7979 6.44423 39.6248 6.42849 39.4438 6.30257C39.3572 6.24748 39.0424 6.12156 38.7355 6.01925C38.4364 5.92481 38.098 5.80676 37.9878 5.76741C37.8776 5.72019 37.6652 5.65723 37.5156 5.61788C37.0907 5.52344 36.5634 5.38179 36.28 5.30309C36.1384 5.25587 35.8551 5.19291 35.6504 5.15356C35.438 5.11421 35.0995 5.04338 34.8792 4.99616C34.6667 4.94894 34.407 4.89385 34.3126 4.87024C34.0922 4.83089 34.0765 4.68136 34.2811 4.68136C34.4542 4.68136 34.5959 4.53183 34.4306 4.51609C34.2732 4.50035 34.6982 4.3823 34.9343 4.37443C35.0523 4.36656 35.194 4.41378 35.2491 4.46887ZM27.7254 5.74381C27.8513 5.80677 28.0874 5.86185 28.2527 5.86185C28.6462 5.86185 28.6226 5.98777 28.2133 6.09008C27.1351 6.34979 25.3251 6.8456 25.0417 6.95578C24.9552 6.98726 24.6876 7.0817 24.4515 7.15253C23.9321 7.32567 23.7747 7.38863 21.8937 8.26219C21.154 8.6006 20.7133 8.80522 20.123 9.06493C19.8869 9.16724 19.6193 9.28529 19.5328 9.32464C19.4462 9.36399 19.1629 9.45056 18.9032 9.52926C18.6435 9.60009 18.2893 9.71027 18.1162 9.76536C17.9352 9.82832 17.6991 9.87554 17.5889 9.87554C17.3606 9.87554 17.2347 9.75749 17.3685 9.67879C17.4157 9.64731 17.4551 9.52926 17.4472 9.41908C17.4157 9.01771 17.4472 8.92327 17.6282 8.85244C17.7227 8.80522 17.9115 8.70291 18.0375 8.61634C18.1713 8.52977 18.3287 8.4432 18.3916 8.41172C18.4546 8.38811 18.6907 8.2858 18.9032 8.18349C19.1235 8.08118 19.5249 7.90804 19.8082 7.79786C20.0915 7.67982 20.3906 7.5539 20.4772 7.51455C20.5637 7.4752 20.8156 7.37289 21.0281 7.27845C21.2484 7.18401 21.4924 7.0817 21.579 7.04235C21.7285 6.97939 22.4368 6.7669 23.3497 6.52293C23.5858 6.45997 23.8927 6.37341 24.0186 6.33406C24.1524 6.30258 24.3807 6.24748 24.5302 6.216C24.6797 6.19239 24.8765 6.1373 24.963 6.09795C25.1283 6.03499 25.931 5.90121 26.7889 5.7989C27.0564 5.76742 27.3004 5.71233 27.3319 5.68085C27.4106 5.60215 27.4736 5.61002 27.7254 5.74381ZM15.3853 13.8105C15.3459 13.9207 14.2048 15.0697 14.1261 15.0697C13.9372 15.0697 14.1969 14.7707 15.039 14.0073C15.3538 13.724 15.4325 13.6767 15.3853 13.8105ZM39.5933 15.9039C39.6641 15.9275 39.7192 15.9984 39.7192 16.0613C39.7192 16.1243 39.7743 16.1715 39.8373 16.1715C39.9002 16.1715 39.9317 16.2187 39.9081 16.2817C39.8845 16.3525 40.0261 16.565 40.2544 16.8011C40.6715 17.234 40.8289 17.2654 41.1516 16.9821C41.2617 16.8798 41.2853 16.8877 41.3326 17.0529C41.364 17.1553 41.5057 17.4779 41.6474 17.7849C41.9622 18.4617 41.97 18.4774 42.2061 19.3982C42.6154 20.9564 42.6626 21.0588 43.6227 22.3101C44.6852 23.7031 44.9213 24.435 44.8977 26.1664C44.874 27.4728 44.9291 27.6617 45.3226 27.6617C45.543 27.6617 45.8814 27.4649 46.1883 27.1659C46.4008 26.9455 47.0934 26.5048 47.5498 26.2844C48.1794 25.9854 48.9428 25.9617 49.5094 26.2293C49.958 26.4418 50.7214 27.1816 50.9024 27.583C51.2015 28.244 51.2408 28.4408 51.2723 29.4403C51.2959 30.3138 51.2723 30.5499 51.1385 30.9356C50.9024 31.6439 50.7686 31.8642 50.3201 32.2971C48.8877 33.6664 47.7623 34.1386 45.6846 34.241L44.5199 34.296L44.4097 34.6187C44.3468 34.7997 44.2208 35.1617 44.1343 35.4293C43.8824 36.1848 42.9302 37.6565 42.214 38.3884C40.8525 39.7735 39.1841 40.8989 37.3189 41.6781C36.9805 41.8119 36.3666 42.0794 36.1384 42.1817C35.1782 42.6067 33.6672 42.9924 32.2428 43.1734C31.5345 43.2599 29.9762 43.2127 29.2522 43.0789C27.993 42.8428 26.7889 42.5516 26.3796 42.3785C26.2931 42.3391 25.9074 42.1817 25.5139 42.0165C23.4127 41.135 21.815 39.9467 20.4693 38.2468C20.304 38.0343 20.0994 37.7824 20.0286 37.7037C19.7374 37.3811 19.1944 36.3737 18.6513 35.1381C18.5805 34.9886 18.5018 34.8076 18.4703 34.7446C18.4152 34.6266 18.2027 33.9262 18.0689 33.4461C17.762 32.2971 17.4236 30.9356 17.3606 30.6129C17.2033 29.7708 17.0459 28.8579 16.975 28.2913C16.9278 27.9686 16.857 27.4885 16.8098 27.2288C16.6917 26.5677 16.5815 25.2377 16.5264 23.8054C16.4871 22.617 16.5737 21.8143 16.8098 21.1925C16.8412 21.0902 16.9514 20.744 17.0537 20.4213C17.1482 20.0986 17.2741 19.7287 17.337 19.6107C17.4 19.4848 17.4472 19.3116 17.4472 19.2172C17.4472 18.9653 17.5574 18.8316 17.7069 18.8945C17.7935 18.926 17.8328 19.0126 17.825 19.1385C17.8014 19.3116 17.8486 19.3588 18.1319 19.4612C18.431 19.5713 18.4861 19.5713 18.7615 19.4612C19.5406 19.1464 19.58 19.1385 21.0281 18.8945C22.3345 18.682 22.9562 18.5482 23.0585 18.4695C23.1057 18.4302 23.4205 18.3908 23.7432 18.383C24.0737 18.383 24.5144 18.3279 24.7269 18.2571C24.9473 18.1941 25.2621 18.139 25.4352 18.139C25.6084 18.139 25.9468 18.0839 26.1829 18.0131C26.5606 17.9029 26.7102 17.8714 27.1981 17.8321C27.2847 17.8242 27.2847 17.8006 27.206 17.7062C27.1273 17.6117 27.1351 17.5881 27.2689 17.5881C27.3555 17.5881 27.4499 17.6432 27.4736 17.714C27.5129 17.8163 27.6152 17.8321 28.0559 17.7927C28.9767 17.7219 30.4327 17.4701 31.1803 17.2497C31.7312 17.0923 32.6441 16.6516 32.8251 16.4627C32.9825 16.3053 32.9825 16.3053 33.0534 16.5099C33.0927 16.6437 33.2895 16.8168 33.5806 16.9979C34.1945 17.3677 34.4936 17.3599 35.8472 16.9192C37.3346 16.4391 37.8068 16.2974 39.0896 15.9512C39.4516 15.8488 39.4516 15.8488 39.5933 15.9039ZM30.1966 16.2423C30.1966 16.3289 29.8818 16.4155 29.7716 16.3525C29.7322 16.321 29.7637 16.2738 29.8503 16.2423C30.0628 16.1558 30.1966 16.1558 30.1966 16.2423ZM29.4725 16.4784C29.5512 16.5257 29.5276 16.5571 29.3702 16.5965C29.1184 16.6594 29.0082 16.5886 29.1735 16.4863C29.3151 16.3919 29.3466 16.3919 29.4725 16.4784ZM28.898 16.8011C28.8744 16.8405 28.6934 16.8798 28.4966 16.8798C28.3078 16.8798 28.1504 16.8405 28.1504 16.8011C28.1504 16.7539 28.3314 16.7224 28.5517 16.7224C28.7957 16.7224 28.9295 16.7539 28.898 16.8011ZM28.0717 17.0372C28.0717 17.1395 27.8828 17.1789 27.0092 17.2812C26.3718 17.3599 26.1593 17.3599 26.0884 17.289C26.0176 17.2182 26.1514 17.1946 26.6708 17.1946C27.1824 17.1946 27.3555 17.171 27.387 17.0844C27.4578 16.9113 28.0717 16.8641 28.0717 17.0372ZM25.0417 17.4228C25.1598 17.4701 25.0811 17.5015 24.7269 17.5488C24.0029 17.6275 23.8219 17.6275 23.8219 17.5173C23.8219 17.3835 24.7584 17.3127 25.0417 17.4228ZM14.9288 27.6617C14.9288 27.8584 14.9682 28.1732 15.0154 28.37C15.0548 28.5667 15.1256 28.9366 15.1649 29.1963C15.2358 29.6606 15.3853 30.487 15.5663 31.3999C15.6135 31.6596 15.708 31.9429 15.763 32.0295C15.826 32.1161 15.8732 32.2656 15.8732 32.36C15.8732 32.4545 15.9283 32.7063 15.9913 32.9109C16.0542 33.1155 16.1723 33.4776 16.2431 33.7058C16.3139 33.9262 16.3454 34.1386 16.3218 34.1623C16.2274 34.2646 15.5506 33.9025 15.039 33.4776C14.5432 33.0683 13.9057 32.3207 13.9057 32.1475C13.9057 32.1082 13.8743 32.0688 13.827 32.0688C13.7877 32.0688 13.7247 31.9744 13.7011 31.8485C13.6696 31.7304 13.5909 31.573 13.528 31.4943C13.3548 31.2976 13.3548 28.9445 13.5358 28.5824C13.5988 28.4408 13.7326 28.1653 13.827 27.9528C13.9215 27.7482 14.1576 27.4177 14.3543 27.2052L14.7163 26.8353L14.8187 27.0714C14.8737 27.1973 14.921 27.4649 14.9288 27.6617ZM36.8546 46.9982C36.8231 47.3287 36.7916 47.6199 36.7759 47.6278C36.7601 47.6435 36.7286 47.4782 36.6972 47.2579C36.6342 46.8093 36.6499 46.8093 36.0754 47.4074C35.7291 47.7616 34.8477 48.2495 34.6667 48.1787C34.6037 48.1472 34.6274 48.1157 34.7454 48.0842C34.8398 48.0527 34.9185 47.9977 34.9185 47.9583C34.9185 47.9111 34.9894 47.856 35.0681 47.8245C35.2412 47.7616 35.7921 47.3208 36.3745 46.7699C36.587 46.5653 36.7995 46.3922 36.8388 46.3922C36.8703 46.3922 36.8782 46.6676 36.8546 46.9982ZM38.342 48.1708C38.5623 48.2731 38.8535 48.4541 38.9952 48.5722L39.247 48.7925L39.1132 49.1467C38.5781 50.5003 37.6809 51.3817 35.9259 52.271C34.47 53.0187 34.0922 53.1131 32.5182 53.1131C31.2354 53.121 31.1095 53.1053 30.0785 52.7432C29.4489 52.5229 29.0003 52.271 28.3865 51.791C27.5601 51.1535 27.3083 50.8072 27.0092 49.9337C26.8597 49.4693 26.8597 49.2726 27.0328 49.1309C27.1588 49.0207 28.5753 48.281 28.654 48.281C28.7091 48.281 28.8351 48.8004 28.898 49.2883C28.9295 49.5087 29.0161 49.7763 29.0948 49.8707C29.2128 50.0202 29.2679 50.036 29.4568 49.973C29.685 49.8943 29.685 49.8786 29.7244 49.1467C29.748 48.7374 29.7952 48.4069 29.8267 48.4148C29.9526 48.4384 30.3225 48.6115 30.6688 48.7925C30.9757 48.9657 31.1252 48.9893 31.8256 48.9893C32.2664 48.9893 32.6441 49.0207 32.6677 49.0601C32.7228 49.1388 32.5418 49.2254 32.3293 49.2254C32.1562 49.2254 31.8807 49.5166 31.9673 49.6031C31.9988 49.6346 32.046 49.611 32.0617 49.5559C32.1247 49.3906 32.4002 49.4457 32.4002 49.6267C32.4002 49.7448 32.3608 49.7763 32.2821 49.7448C32.1719 49.7054 31.7706 50.0045 31.7706 50.1225C31.7706 50.217 33.7223 50.036 33.8561 49.9337C33.9033 49.9022 34.0686 49.8314 34.226 49.7841C34.5801 49.6661 36.1856 48.6115 36.5712 48.2416C36.9883 47.8403 37.5865 47.8166 38.342 48.1708ZM33.0691 49.6976C33.0927 49.7369 33.0455 49.7763 32.951 49.7763C32.8566 49.7763 32.8094 49.7369 32.833 49.6976C32.8566 49.6503 32.9117 49.6189 32.951 49.6189C32.9904 49.6189 33.0455 49.6503 33.0691 49.6976Z" fill="black"/>
<path d="M36.162 19.7445C35.3593 19.9255 35.0051 20.1694 34.7297 20.7282C34.5644 21.0745 34.5723 21.1925 34.7611 21.5073C35.0208 21.9323 35.3356 22.0189 36.4611 21.9481C37.5156 21.893 38.342 21.9795 39.2864 22.2471C40.3724 22.5619 40.64 22.499 40.9391 21.8694C41.065 21.6018 41.065 21.5624 40.9469 21.2555C40.8761 21.0666 40.7187 20.8305 40.6007 20.7125C40.3803 20.5 39.6956 20.1065 39.5461 20.1065C39.5067 20.1065 39.3572 20.0593 39.2234 19.9963C38.5151 19.6736 37.0513 19.5556 36.162 19.7445Z" fill="black"/>
<path d="M21.7363 20.0278C21.4373 20.1065 21.0595 20.2088 20.91 20.2718C20.5716 20.3977 19.6744 20.9328 19.4304 21.1611C18.8874 21.649 18.8795 22.499 19.4147 22.9161C19.6429 23.0971 20.123 23.0341 20.6818 22.7429C20.9808 22.5934 21.2799 22.4675 21.3586 22.4675C21.4452 22.4675 21.5396 22.436 21.5868 22.3967C21.7127 22.2786 22.6493 22.1291 23.6094 22.0819C24.5381 22.0346 24.5459 22.0346 24.7742 21.7749C25.0339 21.4837 25.0653 21.1768 24.8765 20.7597C24.5066 19.9884 23.1451 19.6658 21.7363 20.0278Z" fill="black"/>
<path d="M37.0513 23.766C36.6421 23.892 36.3981 24.1044 36.0597 24.6317C35.5717 25.3951 35.5088 25.7571 35.5088 27.7797C35.5088 29.3144 35.5324 29.6606 35.6583 30.062C35.9652 31.0694 36.5555 32.0138 37.0513 32.2971C37.3661 32.4781 38.0586 32.5253 38.4049 32.3915C38.7197 32.2656 39.2942 31.6596 39.4831 31.2425C39.5776 31.0221 39.6877 30.7939 39.7271 30.7152C39.7586 30.6444 39.8137 30.4004 39.8373 30.1643C39.8609 29.9361 39.9238 29.456 39.9632 29.1019C40.0655 28.3464 39.8845 26.3946 39.6563 25.7335C39.5146 25.3164 39.1604 24.6553 38.9401 24.4035C38.7433 24.1753 38.2475 23.8841 37.8383 23.7582C37.4133 23.6322 37.4841 23.6322 37.0513 23.766Z" fill="black"/>
<path d="M22.3581 24.1674C21.4137 24.8127 21.1304 25.6076 21.1304 27.6066C21.1304 28.3227 21.1697 29.0389 21.2091 29.2042C21.2563 29.3773 21.3114 29.6842 21.3428 29.9046C21.4609 30.8018 21.8465 31.5888 22.4683 32.242C23.2238 33.029 24.3177 32.8795 24.9079 31.9193C25.3565 31.1874 25.4195 30.8411 25.4274 29.0783C25.4274 27.9843 25.3959 27.3233 25.3251 27.0321C24.9866 25.6155 24.5774 24.7734 24.0422 24.3878C23.389 23.9156 22.8381 23.8447 22.3581 24.1674Z" fill="black"/>
<path d="M34.1316 34.6423C34.0686 34.6659 33.8246 34.8784 33.5964 35.1066C33.2737 35.4372 32.9747 35.6339 32.2664 35.9723L31.3535 36.4131L30.4642 36.3816C29.8896 36.3658 29.5355 36.3186 29.4725 36.2557C29.4253 36.2084 29.3309 36.1612 29.2679 36.1612C29.205 36.1612 28.9531 36.0353 28.7013 35.8858C27.9615 35.4372 27.5365 35.5395 27.4657 36.177C27.4106 36.6492 27.5995 37.0427 28.0481 37.3811C28.3865 37.6408 28.6462 37.7509 29.4096 37.9792C29.9841 38.1602 31.6997 38.113 32.29 37.9162C33.3209 37.5621 34.3047 36.9167 34.8556 36.232C35.3357 35.6339 35.2727 34.9335 34.7297 34.7053C34.4385 34.5794 34.3283 34.5715 34.1316 34.6423Z" fill="black"/>
</g>
</svg>
